<?xml version="1.0" standalone="no"?>
<!DOCTYPE svg PUBLIC "-//W3C//DTD SVG 20010904//EN"
 "http://www.w3.org/TR/2001/REC-SVG-20010904/DTD/svg10.dtd">
<svg version="1.0" xmlns="http://www.w3.org/2000/svg"
 width="500.000000pt" height="500.000000pt" viewBox="0 0 500.000000 500.000000"
 preserveAspectRatio="xMidYMid meet">

<g transform="translate(0.000000,500.000000) scale(0.100000,-0.100000)"
fill="#000000" stroke="none">
<path d="M3383 4239 c-267 -25 -461 -132 -1007 -555 -265 -205 -776 -620 -776
-631 0 -5 881 440 1290 652 140 73 284 141 320 153 193 62 377 64 496 7 68
-33 177 -147 211 -222 57 -123 41 -314 -64 -734 l-46 -186 119 -136 c65 -75
122 -133 126 -129 8 9 127 489 165 667 24 114 27 152 28 310 0 207 -14 275
-88 425 -126 257 -440 411 -774 379z"/>
<path d="M1383 4205 c-246 -45 -424 -167 -525 -360 -131 -252 -138 -504 -24
-785 52 -127 144 -270 364 -564 97 -130 446 -571 530 -669 20 -24 75 -90 120
-145 46 -56 86 -102 88 -102 6 0 -322 654 -552 1100 -103 201 -197 385 -210
410 -58 116 -92 320 -74 446 14 103 47 172 116 244 106 111 199 146 360 137
109 -7 358 -56 568 -111 l129 -34 139 121 c76 66 136 123 133 126 -8 7 -140
40 -443 112 -350 82 -557 104 -719 74z"/>
<path d="M3072 3363 c16 -36 566 -1126 633 -1253 168 -321 192 -389 202 -567
10 -183 -22 -277 -133 -383 -163 -157 -306 -161 -861 -24 l-183 45 -122 -107
c-160 -140 -153 -133 -147 -138 9 -9 546 -140 679 -165 127 -24 335 -40 410
-31 223 26 397 108 514 242 54 61 139 226 162 313 25 93 30 293 9 395 -21 106
-73 244 -127 335 -128 219 -402 582 -850 1128 -158 191 -199 237 -186 210z"/>
<path d="M2381 2746 c-54 -19 -112 -75 -139 -134 -78 -172 65 -369 255 -349
96 10 183 81 214 174 15 45 7 149 -14 190 -23 44 -75 93 -122 114 -46 21 -142
24 -194 5z"/>
<path d="M892 2264 c-117 -473 -149 -663 -137 -817 30 -368 220 -614 551 -709
106 -31 320 -33 434 -4 210 53 349 130 690 384 240 178 876 688 955 764 23 22
-366 -170 -990 -490 -231 -118 -450 -230 -487 -248 -152 -77 -396 -114 -528
-79 -86 22 -133 51 -201 122 -98 103 -137 216 -124 358 10 102 50 305 101 508
l44 179 -84 96 c-46 54 -101 117 -123 141 l-39 44 -62 -249z"/>
</g>
</svg>
